#Comment line ignore any data following # character 
#Hierarchical Translation and Rotation (.htr) file 
[Header]	
#Header keywords are followed by a single value 
FileType HTR		#Single word string
DataType HTRS		#Translation followed by rotation and scale data
FileVersion 1		#integer
NumSegments 84		#integer
NumFrames 2		#integer
DataFrameRate 30		#integer, data frame rate in this file
EulerRotationOrder ZYX
CalibrationUnits mm
RotationUnits Degrees
GlobalAxisofGravity Y
BoneLengthAxis Y
ScaleFactor 1.00
[SegmentNames&Hierarchy]
#CHILD	PARENT
MASTER GLOBAL
root MASTER
chest root
L_mid_tent01 root
R_mid_tent01 root
spine01 root
Bip01_Neck chest
L_humerus chest
R_humerus chest
weapon_bone chest
Bip01_Head Bip01_Neck
eye_left_bone Bip01_Head
eye_right_bone Bip01_Head
L_forearm L_humerus
L_front_hand L_forearm
L_weapon_bone L_forearm
L_front_hand01_01 L_front_hand
L_front_hand02_01 L_front_hand
L_front_hand03_01 L_front_hand
L_front_hand01_02 L_front_hand01_01
L_front_hand02_02 L_front_hand02_01
L_front_hand03_02 L_front_hand03_01
R_forearm R_humerus
R_front_hand R_forearm
R_weapon_bone R_forearm
R_front_hand01_01 R_front_hand
R_front_hand02_01 R_front_hand
R_front_hand03_01 R_front_hand
R_front_hand01_02 R_front_hand01_01
R_front_hand02_02 R_front_hand02_01
R_front_hand03_02 R_front_hand03_01
null_rope01_connect L_mid_tent01
Rope1_Seg01 null_rope01_connect
Rope1_Seg02 Rope1_Seg01
Rope1_Seg03 Rope1_Seg02
Rope1_Seg04 Rope1_Seg03
Rope1_Seg05 Rope1_Seg04
Rope1_Seg06 Rope1_Seg05
Rope1_Seg07 Rope1_Seg06
Rope1_Seg09 Rope1_Seg07
L_mid_hand01 Rope1_Seg09
L_mid_hand02 Rope1_Seg09
L_mid_hand03 Rope1_Seg09
null_rope02_connect R_mid_tent01
Rope2_Seg01 null_rope02_connect
Rope2_Seg02 Rope2_Seg01
Rope2_Seg03 Rope2_Seg02
Rope2_Seg04 Rope2_Seg03
Rope2_Seg05 Rope2_Seg04
Rope2_Seg06 Rope2_Seg05
Rope2_Seg07 Rope2_Seg06
Rope2_Seg09 Rope2_Seg07
R_mid_hand01 Rope2_Seg09
R_mid_hand02 Rope2_Seg09
R_mid_hand03 Rope2_Seg09
spine02 spine01
spine03 spine02
pelvis spine03
null_rope03_connect pelvis
null_rope04_connect pelvis
Rope3_Seg01 null_rope03_connect
Rope3_Seg02 Rope3_Seg01
Rope3_Seg03 Rope3_Seg02
Rope3_Seg04 Rope3_Seg03
Rope3_Seg05 Rope3_Seg04
Rope3_Seg06 Rope3_Seg05
Rope3_Seg07 Rope3_Seg06
Rope3_Seg08 Rope3_Seg07
Rope3_Seg09 Rope3_Seg08
R_rear_hand01 Rope3_Seg09
R_rear_hand02 Rope3_Seg09
R_rear_hand03 Rope3_Seg09
Rope4_Seg01 null_rope04_connect
Rope4_Seg02 Rope4_Seg01
Rope4_Seg03 Rope4_Seg02
Rope4_Seg04 Rope4_Seg03
Rope4_Seg05 Rope4_Seg04
Rope4_Seg06 Rope4_Seg05
Rope4_Seg07 Rope4_Seg06
Rope4_Seg08 Rope4_Seg07
Rope4_Seg09 Rope4_Seg08
L_rear_hand01 Rope4_Seg09
L_rear_hand02 Rope4_Seg09
L_rear_hand03 Rope4_Seg09
[BasePosition]
#SegmentName Tx, Ty, Tz, Rx, Ry, Rz, BoneLength
MASTER 0.000000 0.000000 0.000000 -90.000000 0.000000 0.000000 10.000000 
root 0.000000 0.000000 0.000000 0.000000 0.000000 0.000000 10.000000 
chest 0.000000 0.000000 0.000000 0.000000 0.000000 0.000000 10.000000 
L_mid_tent01 0.000000 0.000000 0.000000 0.000000 0.000000 0.000000 10.000000 
R_mid_tent01 0.000000 0.000000 0.000000 0.000000 0.000000 0.000000 10.000000 
spine01 0.000000 0.000000 0.000000 0.000000 0.000000 0.000000 10.000000 
Bip01_Neck 0.000000 0.000000 0.000000 0.000000 0.000000 0.000000 10.000000 
L_humerus 0.000000 0.000000 0.000000 0.000000 0.000000 0.000000 10.000000 
R_humerus 0.000000 0.000000 0.000000 0.000000 0.000000 0.000000 10.000000 
weapon_bone 0.000000 0.000000 0.000000 0.000000 0.000000 0.000000 10.000000 
Bip01_Head 0.000000 0.000000 0.000000 0.000000 0.000000 0.000000 10.000000 
eye_left_bone 0.000000 0.000000 0.000000 0.000000 0.000000 0.000000 10.000000 
eye_right_bone 0.000000 0.000000 0.000000 0.000000 0.000000 0.000000 10.000000 
L_forearm 0.000000 0.000000 0.000000 0.000000 0.000000 0.000000 10.000000 
L_front_hand 0.000000 0.000000 0.000000 0.000000 0.000000 0.000000 10.000000 
L_weapon_bone 0.000000 0.000000 0.000000 0.000000 0.000000 0.000000 10.000000 
L_front_hand01_01 0.000000 0.000000 0.000000 0.000000 0.000000 0.000000 10.000000 
L_front_hand02_01 0.000000 0.000000 0.000000 0.000000 0.000000 0.000000 10.000000 
L_front_hand03_01 0.000000 0.000000 0.000000 0.000000 0.000000 0.000000 10.000000 
L_front_hand01_02 0.000000 0.000000 0.000000 0.000000 0.000000 0.000000 10.000000 
L_front_hand02_02 0.000000 0.000000 0.000000 0.000000 0.000000 0.000000 10.000000 
L_front_hand03_02 0.000000 0.000000 0.000000 0.000000 0.000000 0.000000 10.000000 
R_forearm 0.000000 0.000000 0.000000 0.000000 0.000000 0.000000 10.000000 
R_front_hand 0.000000 0.000000 0.000000 0.000000 0.000000 0.000000 10.000000 
R_weapon_bone 0.000000 0.000000 0.000000 0.000000 0.000000 0.000000 10.000000 
R_front_hand01_01 0.000000 0.000000 0.000000 0.000000 0.000000 0.000000 10.000000 
R_front_hand02_01 0.000000 0.000000 0.000000 0.000000 0.000000 0.000000 10.000000 
R_front_hand03_01 0.000000 0.000000 0.000000 0.000000 0.000000 0.000000 10.000000 
R_front_hand01_02 0.000000 0.000000 0.000000 0.000000 0.000000 0.000000 10.000000 
R_front_hand02_02 0.000000 0.000000 0.000000 0.000000 0.000000 0.000000 10.000000 
R_front_hand03_02 0.000000 0.000000 0.000000 0.000000 0.000000 0.000000 10.000000 
null_rope01_connect 0.000000 0.000000 0.000000 0.000000 0.000000 0.000000 10.000000 
Rope1_Seg01 0.000000 0.000000 0.000000 0.000000 0.000000 0.000000 10.000000 
Rope1_Seg02 0.000000 0.000000 0.000000 0.000000 0.000000 0.000000 10.000000 
Rope1_Seg03 0.000000 0.000000 0.000000 0.000000 0.000000 0.000000 10.000000 
Rope1_Seg04 0.000000 0.000000 0.000000 0.000000 0.000000 0.000000 10.000000 
Rope1_Seg05 0.000000 0.000000 0.000000 0.000000 0.000000 0.000000 10.000000 
Rope1_Seg06 0.000000 0.000000 0.000000 0.000000 0.000000 0.000000 10.000000 
Rope1_Seg07 0.000000 0.000000 0.000000 0.000000 0.000000 0.000000 10.000000 
Rope1_Seg09 0.000000 0.000000 0.000000 0.000000 0.000000 0.000000 10.000000 
L_mid_hand01 0.000000 0.000000 0.000000 0.000000 0.000000 0.000000 10.000000 
L_mid_hand02 0.000000 0.000000 0.000000 0.000000 0.000000 0.000000 10.000000 
L_mid_hand03 0.000000 0.000000 0.000000 0.000000 0.000000 0.000000 10.000000 
null_rope02_connect 0.000000 0.000000 0.000000 0.000000 0.000000 0.000000 10.000000 
Rope2_Seg01 0.000000 0.000000 0.000000 0.000000 0.000000 0.000000 10.000000 
Rope2_Seg02 0.000000 0.000000 0.000000 0.000000 0.000000 0.000000 10.000000 
Rope2_Seg03 0.000000 0.000000 0.000000 0.000000 0.000000 0.000000 10.000000 
Rope2_Seg04 0.000000 0.000000 0.000000 0.000000 0.000000 0.000000 10.000000 
Rope2_Seg05 0.000000 0.000000 0.000000 0.000000 0.000000 0.000000 10.000000 
Rope2_Seg06 0.000000 0.000000 0.000000 0.000000 0.000000 0.000000 10.000000 
Rope2_Seg07 0.000000 0.000000 0.000000 0.000000 0.000000 0.000000 10.000000 
Rope2_Seg09 0.000000 0.000000 0.000000 0.000000 0.000000 0.000000 10.000000 
R_mid_hand01 0.000000 0.000000 0.000000 0.000000 0.000000 0.000000 10.000000 
R_mid_hand02 0.000000 0.000000 0.000000 0.000000 0.000000 0.000000 10.000000 
R_mid_hand03 0.000000 0.000000 0.000000 0.000000 0.000000 0.000000 10.000000 
spine02 0.000000 0.000000 0.000000 0.000000 0.000000 0.000000 10.000000 
spine03 0.000000 0.000000 0.000000 0.000000 0.000000 0.000000 10.000000 
pelvis 0.000000 0.000000 0.000000 0.000000 0.000000 0.000000 10.000000 
null_rope03_connect 0.000000 0.000000 0.000000 0.000000 0.000000 0.000000 10.000000 
null_rope04_connect 0.000000 0.000000 0.000000 0.000000 0.000000 0.000000 10.000000 
Rope3_Seg01 0.000000 0.000000 0.000000 0.000000 0.000000 0.000000 10.000000 
Rope3_Seg02 0.000000 0.000000 0.000000 0.000000 0.000000 0.000000 10.000000 
Rope3_Seg03 0.000000 0.000000 0.000000 0.000000 0.000000 0.000000 10.000000 
Rope3_Seg04 0.000000 0.000000 0.000000 0.000000 0.000000 0.000000 10.000000 
Rope3_Seg05 0.000000 0.000000 0.000000 0.000000 0.000000 0.000000 10.000000 
Rope3_Seg06 0.000000 0.000000 0.000000 0.000000 0.000000 0.000000 10.000000 
Rope3_Seg07 0.000000 0.000000 0.000000 0.000000 0.000000 0.000000 10.000000 
Rope3_Seg08 0.000000 0.000000 0.000000 0.000000 0.000000 0.000000 10.000000 
Rope3_Seg09 0.000000 0.000000 0.000000 0.000000 0.000000 0.000000 10.000000 
R_rear_hand01 0.000000 0.000000 0.000000 0.000000 0.000000 0.000000 10.000000 
R_rear_hand02 0.000000 0.000000 0.000000 0.000000 0.000000 0.000000 10.000000 
R_rear_hand03 0.000000 0.000000 0.000000 0.000000 0.000000 0.000000 10.000000 
Rope4_Seg01 0.000000 0.000000 0.000000 0.000000 0.000000 0.000000 10.000000 
Rope4_Seg02 0.000000 0.000000 0.000000 0.000000 0.000000 0.000000 10.000000 
Rope4_Seg03 0.000000 0.000000 0.000000 0.000000 0.000000 0.000000 10.000000 
Rope4_Seg04 0.000000 0.000000 0.000000 0.000000 0.000000 0.000000 10.000000 
Rope4_Seg05 0.000000 0.000000 0.000000 0.000000 0.000000 0.000000 10.000000 
Rope4_Seg06 0.000000 0.000000 0.000000 0.000000 0.000000 0.000000 10.000000 
Rope4_Seg07 0.000000 0.000000 0.000000 0.000000 0.000000 0.000000 10.000000 
Rope4_Seg08 0.000000 0.000000 0.000000 0.000000 0.000000 0.000000 10.000000 
Rope4_Seg09 0.000000 0.000000 0.000000 0.000000 0.000000 0.000000 10.000000 
L_rear_hand01 0.000000 0.000000 0.000000 0.000000 0.000000 0.000000 10.000000 
L_rear_hand02 0.000000 0.000000 0.000000 0.000000 0.000000 0.000000 10.000000 
L_rear_hand03 0.000000 0.000000 0.000000 0.000000 0.000000 0.000000 10.000000 
#Beginning of Data. Separated by tabs
#Fr	Tx	Ty	Tz	Rx	Ry	Rz	SF
[MASTER]
38 2472.229004 2790.114502 1869.317749 0.001660 0.001660 0.001660 4170.251953
39 2470.343018 2790.114502 1867.826416 0.001660 0.001660 0.001660 4168.466309
[root]
38 92.015594 -51.398621 304.701569 -11.651944 3.172110 -112.969788 322.415466
39 93.235458 -51.398621 304.694214 -11.644307 3.180130 -112.990921 322.758789
[chest]
38 -84.512650 -34.090519 0.000000 18.706800 10.930150 155.171921 91.129311
39 -84.512650 -34.090519 0.000000 18.930552 10.923503 155.373657 91.129311
[L_mid_tent01]
38 27.299021 22.179163 -249.918701 1.941406 20.057129 85.147423 252.381683
39 27.299019 22.179165 -249.918701 2.044286 20.064882 85.379868 252.381683
[R_mid_tent01]
38 23.228794 24.509907 226.238495 171.091568 -19.656481 70.145966 228.744751
39 23.228794 24.509907 226.238495 171.252319 -19.485254 70.310616 228.744751
[spine01]
38 -0.361383 -0.195265 0.000000 0.001912 0.001362 19.086742 0.410763
39 -0.361383 -0.195265 0.000000 0.001913 0.001360 19.164881 0.410763
[Bip01_Neck]
38 165.484543 71.581718 0.000119 176.643677 -1.657967 43.431911 180.302734
39 165.484543 71.581718 0.000119 176.643677 -1.657967 43.431911 180.302734
[L_humerus]
38 -13.983130 -135.272980 -120.471481 18.943171 62.585770 134.687622 181.680161
39 -13.983130 -135.272980 -120.471481 18.270805 62.041367 134.093689 181.680161
[R_humerus]
38 -13.983309 -135.273102 125.287651 -167.560410 -71.710831 -97.717079 184.909012
39 -13.983309 -135.273102 125.287651 -167.275848 -72.106087 -98.012970 184.909012
[weapon_bone]
38 235.964890 -300.705902 0.000000 0.000000 -89.951546 -128.212341 382.234833
39 235.964890 -300.705902 0.000000 0.000000 -89.951546 -128.212341 382.234833
[Bip01_Head]
38 213.698410 142.319992 5.309397 69.774963 43.089642 -27.325876 256.807678
39 213.698410 142.319946 5.309448 69.774963 43.089642 -27.325882 256.807678
[eye_left_bone]
38 -24.626970 125.451866 -64.772606 0.000000 -90.000000 -99.840431 143.318359
39 -24.626970 125.451866 -64.772606 0.000000 -90.000000 -99.840431 143.318359
[eye_right_bone]
38 -24.626970 125.451866 64.327362 0.000000 -89.965736 80.156380 143.117676
39 -24.626970 125.451866 64.327362 0.000000 -89.965736 80.156380 143.117676
[L_forearm]
38 322.776093 0.000000 -0.000119 0.000055 0.002347 -87.331032 322.776093
39 322.776093 0.000000 -0.000119 0.000052 0.002347 -87.464508 322.776093
[L_front_hand]
38 241.149185 -0.042021 -3.300071 60.145355 -2.204067 -5.138964 241.171753
39 241.149185 -0.042021 -3.300071 60.145355 -2.204067 -5.138964 241.171753
[L_weapon_bone]
38 156.183838 0.000000 0.000000 0.000014 0.000007 0.000001 156.183838
39 156.183838 0.000000 0.000000 0.000014 0.000007 0.000001 156.183838
[L_front_hand01_01]
38 86.095154 20.947098 -0.655860 -0.366594 -0.477154 75.385574 88.609184
39 86.095154 20.947098 -0.655860 -0.366594 -0.477154 75.385582 88.609184
[L_front_hand02_01]
38 86.935165 -11.437475 24.513514 154.399796 -59.883835 -61.369587 91.046425
39 86.935165 -11.437475 24.513514 154.399796 -59.883835 -61.369587 91.046425
[L_front_hand03_01]
38 86.637497 -14.123976 -20.424902 -153.913849 58.118130 -62.702866 90.126129
39 86.637497 -14.123976 -20.424902 -153.913849 58.118122 -62.702866 90.126129
[L_front_hand01_02]
38 71.020905 -0.000179 0.000030 0.000334 -0.002323 -106.378700 71.020905
39 71.020905 -0.000179 0.000030 0.000334 -0.002323 -106.379684 71.020905
[L_front_hand02_02]
38 71.020927 -0.000119 0.000060 0.000334 -0.002323 -106.378700 71.020927
39 71.020927 -0.000119 0.000060 0.000334 -0.002323 -106.379684 71.020927
[L_front_hand03_02]
38 71.020905 -0.000060 0.000060 0.000334 -0.002323 -106.378700 71.020905
39 71.020905 -0.000060 0.000060 0.000334 -0.002323 -106.379684 71.020905
[R_forearm]
38 322.776428 -0.000060 0.000030 0.200988 0.068518 -109.973175 322.776428
39 322.776428 -0.000060 0.000030 0.200994 0.068502 -109.964127 322.776428
[R_front_hand]
38 238.847015 -0.006795 2.210259 -2.635298 -10.645461 -26.312506 238.857239
39 238.847015 -0.006795 2.210259 -2.635298 -10.645461 -26.312506 238.857239
[R_weapon_bone]
38 155.664093 0.002503 -0.000030 0.003487 0.001180 -90.988930 155.664078
39 155.664093 0.002503 -0.000030 0.003487 0.001180 -90.988930 155.664078
[R_front_hand01_01]
38 87.624611 14.231146 22.918642 -154.633499 -59.950619 61.746044 91.683487
39 87.624611 14.231146 22.918642 -154.633499 -59.950642 61.746071 91.683487
[R_front_hand02_01]
38 89.356956 14.367283 -19.491137 154.602661 58.302849 63.744389 92.579636
39 89.356956 14.367283 -19.491137 154.602676 58.302864 63.744389 92.579636
[R_front_hand03_01]
38 87.286232 -22.307278 -0.143439 0.162155 -0.423168 -75.767921 90.091743
39 87.286232 -22.307278 -0.143439 0.162155 -0.423168 -75.767921 90.091743
[R_front_hand01_02]
38 71.020905 0.000060 0.000119 0.002323 -0.000334 106.381714 71.020905
39 71.020905 0.000060 0.000119 0.002323 -0.000334 106.381714 71.020905
[R_front_hand02_02]
38 71.020844 -0.000030 -0.000119 0.002323 -0.000334 106.381714 71.020836
39 71.020844 -0.000030 -0.000119 0.002323 -0.000334 106.381714 71.020836
[R_front_hand03_02]
38 71.020905 0.000000 0.000030 0.002323 -0.000334 106.381714 71.020905
39 71.020905 0.000000 0.000030 0.002323 -0.000334 106.381714 71.020905
[null_rope01_connect]
38 328.732483 0.000000 -0.000238 -19.791660 -25.926685 32.269547 328.732483
39 328.732483 0.000000 -0.000238 -19.836479 -25.908155 32.070744 328.732483
[Rope1_Seg01]
38 -0.000014 -0.000137 0.000096 -28.838924 44.350727 141.827499 0.000168
39 -0.000014 -0.000140 0.000095 -28.165539 43.947124 142.641525 0.000169
[Rope1_Seg02]
38 139.999863 -0.000179 0.000000 -14.425691 27.691294 -18.558031 139.999863
39 139.999863 -0.000179 0.000000 -14.765112 28.248690 -19.028084 139.999863
[Rope1_Seg03]
38 139.999924 0.000060 -0.000060 -23.032967 17.620367 -5.050384 139.999924
39 139.999924 0.000060 -0.000060 -23.847898 18.024172 -5.185117 139.999924
[Rope1_Seg04]
38 139.999924 -0.000060 -0.000119 -17.178871 7.654584 0.593297 139.999924
39 139.999924 -0.000060 -0.000119 -17.653948 7.712605 0.693359 139.999924
[Rope1_Seg05]
38 139.999832 0.000119 -0.000060 -26.233171 9.223315 -0.022519 139.999832
39 139.999832 0.000119 -0.000060 -26.374905 9.125651 0.223345 139.999832
[Rope1_Seg06]
38 139.999954 0.000119 -0.000060 -69.212608 20.435741 7.355239 139.999954
39 139.999954 0.000119 -0.000060 -67.240669 20.033869 7.859412 139.999954
[Rope1_Seg07]
38 139.999985 0.000060 0.000000 -19.873396 -0.570439 22.947929 139.999985
39 139.999985 0.000060 0.000000 -19.874424 -0.454963 23.050591 139.999985
[Rope1_Seg09]
38 121.602913 0.000119 -0.000089 -89.793175 -1.359789 0.847147 121.602913
39 121.602913 0.000119 -0.000089 -89.793175 -1.359789 0.847147 121.602913
[L_mid_hand01]
38 103.859421 1.038730 8.195221 130.544373 -67.584534 -38.866943 104.187431
39 103.859421 1.038730 8.195221 130.544342 -67.584518 -38.866936 104.187431
[L_mid_hand02]
38 105.572853 -4.139662 -10.864139 -168.923172 43.409309 -73.498886 106.211075
39 105.572853 -4.139662 -10.864139 -168.923172 43.409309 -73.498894 106.211075
[L_mid_hand03]
38 104.641464 17.579376 -3.913581 -6.012626 17.808172 74.893661 106.179977
39 104.641464 17.579376 -3.913581 -6.012626 17.808172 74.893661 106.179977
[null_rope02_connect]
38 328.732849 0.000179 -0.000119 -167.605896 1.064578 -42.814766 328.732849
39 328.732849 0.000179 -0.000119 -167.868607 1.020351 -42.663479 328.732849
[Rope2_Seg01]
38 0.000036 0.000209 0.000000 -26.136450 -74.403015 -169.121918 0.000212
39 0.000035 0.000211 0.000000 -26.948900 -74.586761 -168.279465 0.000214
[Rope2_Seg02]
38 139.999741 -0.000060 -0.000119 -0.978165 -3.914890 -33.550797 139.999756
39 139.999741 -0.000060 -0.000119 -1.190902 -3.848770 -32.991436 139.999756
[Rope2_Seg03]
38 140.000107 0.000030 0.000000 11.039375 -3.466769 -53.845943 140.000107
39 140.000107 0.000030 0.000000 10.620415 -3.321447 -53.702908 140.000107
[Rope2_Seg04]
38 139.999802 0.000000 -0.000060 7.653071 -4.511166 -20.026419 139.999802
39 139.999802 0.000000 -0.000060 7.786382 -4.418700 -20.499802 139.999802
[Rope2_Seg05]
38 139.999985 -0.000060 0.000119 1.269636 -1.932654 -3.006251 139.999985
39 139.999985 -0.000060 0.000119 1.326835 -1.951141 -3.137759 139.999985
[Rope2_Seg06]
38 139.999893 -0.000030 -0.000119 -0.494325 -1.076740 1.895749 139.999893
39 139.999893 -0.000030 -0.000119 -0.466036 -1.113829 1.806598 139.999893
[Rope2_Seg07]
38 139.999893 0.000060 -0.000060 -0.466191 -1.281164 2.024962 139.999893
39 139.999893 0.000060 -0.000060 -0.451174 -1.306370 1.970484 139.999893
[Rope2_Seg09]
38 121.338966 0.000089 -0.000060 33.793236 -1.359788 -0.847141 121.338966
39 121.338966 0.000089 -0.000060 33.793236 -1.359788 -0.847141 121.338966
[R_mid_hand01]
38 104.680779 11.144459 -10.335981 -16.212063 45.237247 70.462852 105.778534
39 104.680779 11.144459 -10.335981 -16.212063 45.237247 70.462852 105.778534
[R_mid_hand02]
38 104.070427 2.443552 8.231699 49.067368 -67.749771 39.286453 104.424065
39 104.070427 2.443552 8.231699 49.067368 -67.749771 39.286453 104.424065
[R_mid_hand03]
38 106.028137 -11.221827 -5.996406 -177.101105 15.551026 -76.585571 106.788818
39 106.028137 -11.221827 -5.996406 -177.101105 15.551026 -76.585571 106.788818
[spine02]
38 129.756927 0.001550 0.000119 0.550196 -4.022205 -15.664806 129.756927
39 129.756927 0.001550 0.000119 0.548477 -4.022442 -15.643775 129.756927
[spine03]
38 78.614113 0.081482 -4.899015 2.009114 3.773603 18.187815 78.766655
39 78.614113 0.081482 -4.899016 2.008646 3.773852 18.173603 78.766655
[pelvis]
38 169.435242 0.051022 0.000000 -0.033565 -0.189667 6.315714 169.435257
39 169.435242 0.051022 0.000000 -0.032967 -0.189773 5.954183 169.435257
[null_rope03_connect]
38 -1.257226 -2.466202 137.391083 -7.047942 -8.238882 85.287552 137.418976
39 -1.257226 -2.466202 137.391083 -7.057340 -8.226099 85.578728 137.418976
[null_rope04_connect]
38 -1.259640 -2.480268 -137.844437 -7.047942 -8.238882 85.287552 137.872513
39 -1.259640 -2.480268 -137.844437 -7.057340 -8.226099 85.578728 137.872513
[Rope3_Seg01]
38 -0.000026 -0.000137 0.000000 27.679554 -53.524155 -83.174622 0.000139
39 -0.000026 -0.000140 0.000000 28.550613 -54.018780 -84.093567 0.000142
[Rope3_Seg02]
38 139.999924 -0.000119 0.000060 1.108442 -0.486092 7.872189 139.999924
39 139.999924 -0.000119 0.000060 1.147733 -0.419390 7.872696 139.999924
[Rope3_Seg03]
38 139.999924 -0.000119 0.000119 -2.174635 0.082486 37.534611 139.999924
39 139.999924 -0.000119 0.000119 -1.656294 0.531247 36.758915 139.999924
[Rope3_Seg04]
38 139.999924 0.000119 0.000000 -50.889175 -5.576192 60.649525 139.999924
39 139.999924 0.000119 0.000000 -50.526272 -4.826978 61.456478 139.999924
[Rope3_Seg05]
38 139.999924 -0.000238 0.000060 7.953342 3.425071 -7.006332 139.999924
39 139.999924 -0.000238 0.000060 7.802053 3.010248 -7.321036 139.999924
[Rope3_Seg06]
38 139.999893 -0.000119 -0.000060 -0.269538 -0.799827 -0.117633 139.999893
39 139.999893 -0.000119 -0.000060 -0.313785 -0.864241 -0.144350 139.999893
[Rope3_Seg07]
38 139.999771 0.000060 -0.000119 0.100795 -0.473082 -0.053159 139.999771
39 139.999771 0.000060 -0.000119 0.061259 -0.517611 -0.055493 139.999771
[Rope3_Seg08]
38 139.999985 -0.000060 0.000000 0.300114 -0.273582 -0.027083 139.999985
39 139.999985 -0.000060 0.000000 0.283650 -0.295002 -0.033693 139.999985
[Rope3_Seg09]
38 90.185997 -0.000179 -0.000060 89.793228 -1.359877 -0.847183 90.185997
39 90.185997 -0.000179 -0.000060 89.793228 -1.359877 -0.847183 90.185997
[R_rear_hand01]
38 103.366196 -6.073594 -10.757982 -177.714203 24.565960 -73.910950 104.101845
39 103.366196 -6.073594 -10.757982 -177.714203 24.565960 -73.910950 104.101845
[R_rear_hand02]
38 100.509819 12.039542 -7.992327 -12.874829 36.868488 72.167213 101.543350
39 100.509819 12.039542 -7.992327 -12.874829 36.868488 72.167213 101.543350
[R_rear_hand03]
38 101.539970 5.215704 5.435467 71.484581 -71.816628 21.513813 101.819031
39 101.539970 5.215704 5.435467 71.484581 -71.816628 21.513813 101.819031
[Rope4_Seg01]
38 0.000010 0.000038 -0.000114 -107.826752 68.308334 -101.321373 0.000121
39 0.000010 0.000038 -0.000114 -107.376617 68.185043 -100.863914 0.000121
[Rope4_Seg02]
38 139.999985 0.000060 0.000119 -1.684167 -8.413024 3.961435 139.999985
39 139.999985 0.000060 0.000119 -1.672895 -8.431355 4.001324 139.999985
[Rope4_Seg03]
38 139.999924 0.000000 -0.000238 -1.477381 -14.942461 6.698861 139.999924
39 139.999924 0.000000 -0.000238 -1.457201 -15.026850 6.800378 139.999924
[Rope4_Seg04]
38 139.999985 0.000000 0.000119 1.553033 -25.901701 14.309802 139.999985
39 139.999985 0.000000 0.000119 1.629457 -26.073389 14.620847 139.999985
[Rope4_Seg05]
38 139.999802 -0.000060 -0.000119 8.821200 -22.396151 13.505675 139.999802
39 139.999802 -0.000060 -0.000119 8.895289 -22.273981 13.531491 139.999802
[Rope4_Seg06]
38 139.999924 0.000000 0.000060 4.254667 -10.353235 0.939576 139.999924
39 139.999924 0.000000 0.000060 4.148128 -10.317346 0.763291 139.999924
[Rope4_Seg07]
38 139.999802 0.000000 0.000000 1.493270 -7.359609 -2.151363 139.999802
39 139.999802 0.000000 0.000000 1.549594 -7.365834 -2.100562 139.999802
[Rope4_Seg08]
38 139.999924 0.000000 0.000119 2.330703 -4.833481 1.002441 139.999924
39 139.999924 0.000000 0.000119 2.312985 -4.787067 1.000805 139.999924
[Rope4_Seg09]
38 90.185791 0.000060 0.000060 -135.617828 2.228885 0.850567 90.185791
39 90.185791 0.000060 0.000060 -135.617828 2.228885 0.850567 90.185791
[L_rear_hand01]
38 101.696655 -8.392275 -7.654577 -12.874829 -36.868488 107.832764 102.329041
39 101.696655 -8.392275 -7.654577 -12.874829 -36.868488 107.832764 102.329041
[L_rear_hand02]
38 102.726799 -1.568258 5.773216 71.484581 71.816628 158.486145 102.900848
39 102.726799 -1.568258 5.773216 71.484581 71.816628 158.486160 102.900848
[L_rear_hand03]
38 104.552910 9.721220 -10.420293 -177.714203 -24.565960 -106.089035 105.519653
39 104.552910 9.721220 -10.420293 -177.714203 -24.565960 -106.089035 105.519653
